<?xml version="1.0" standalone="no"?>
<!DOCTYPE svg PUBLIC "-//W3C//DTD SVG 20010904//EN"
 "http://www.w3.org/TR/2001/REC-SVG-20010904/DTD/svg10.dtd">
<svg version="1.0" xmlns="http://www.w3.org/2000/svg"
 width="378.000000pt" height="378.000000pt" viewBox="0 0 378.000000 378.000000"
 preserveAspectRatio="xMidYMid meet">
<metadata>
Created by potrace 1.11, written by Peter Selinger 2001-2013
</metadata>
<g transform="translate(0.000000,378.000000) scale(0.100000,-0.100000)"
fill="#000000" stroke="none">
<path d="M830 2943 c-33 -12 -50 -37 -50 -71 0 -29 8 -43 44 -76 24 -23 47
-52 51 -66 4 -14 21 -51 36 -82 l29 -58 -26 -16 c-14 -10 -41 -37 -59 -61
l-33 -44 -62 53 c-103 88 -174 137 -196 138 -18 0 -27 -15 -53 -83 -17 -46
-31 -90 -31 -98 0 -10 24 -21 73 -33 39 -10 105 -34 145 -54 l74 -35 -6 -41
c-3 -23 -8 -64 -12 -93 -4 -30 -12 -54 -20 -57 -8 -3 -50 -9 -93 -12 l-79 -7
-7 49 c-9 74 -14 79 -83 82 l-61 3 -7 -37 c-7 -40 2 -187 16 -248 10 -45 23
-56 68 -56 56 0 77 36 84 145 l3 40 78 11 c55 7 80 7 86 0 5 -6 11 -51 15
-101 3 -49 7 -103 8 -118 3 -27 -1 -30 -67 -51 -114 -37 -135 -51 -135 -91 0
-26 13 -50 61 -110 33 -42 67 -79 76 -82 9 -4 60 16 119 45 58 29 109 52 115
52 6 0 29 -16 52 -35 23 -20 67 -45 99 -57 l58 -21 0 -58 c0 -52 -3 -60 -29
-78 -55 -39 -63 -117 -17 -160 50 -47 143 -27 166 35 12 30 13 84 2 100 -14
20 -57 44 -80 44 -22 0 -23 3 -20 58 l3 57 78 8 c42 4 107 19 145 33 114 43
102 48 161 -63 69 -131 82 -147 112 -140 34 9 139 95 139 114 0 9 -30 49 -67
90 -38 41 -79 87 -92 103 l-23 29 31 40 c47 60 90 159 97 226 9 90 4 87 85 60
39 -14 93 -27 118 -31 l47 -6 17 79 c9 43 17 100 17 126 0 56 1 55 -115 28
-74 -18 -122 -25 -152 -22 -7 1 -17 20 -24 43 -6 24 -22 64 -35 91 l-25 48
121 57 c66 31 119 61 118 67 -2 5 -27 56 -56 113 -38 74 -57 102 -71 102 -26
0 -78 -61 -134 -157 -26 -45 -51 -84 -57 -88 -5 -3 -25 5 -42 18 -18 14 -59
39 -90 57 -38 21 -58 38 -58 50 0 10 20 47 45 82 60 85 88 139 78 149 -16 16
-162 59 -200 59 -72 0 -94 -34 -108 -165 -11 -107 -6 -101 -85 -109 -39 -3
-94 -15 -123 -26 -28 -11 -55 -20 -59 -20 -10 0 -68 124 -68 145 0 10 14 33
30 52 37 42 38 64 3 102 -28 31 -66 44 -93 34z m73 -41 c27 -24 22 -67 -11
-91 -26 -18 -31 -18 -49 -6 -25 17 -47 69 -39 90 7 19 45 34 66 27 8 -3 23
-12 33 -20z m527 -16 c85 -25 88 -29 59 -69 -73 -103 -98 -145 -104 -173 -6
-31 -4 -33 62 -69 37 -21 84 -50 104 -66 20 -16 39 -29 43 -29 13 0 49 49 86
117 45 81 97 146 111 137 20 -12 101 -188 89 -192 -6 -2 -61 -28 -121 -58
-103 -50 -126 -72 -98 -90 17 -10 59 -106 59 -135 0 -45 20 -53 102 -40 40 6
99 18 131 25 l57 14 0 -26 c0 -15 -8 -62 -17 -104 l-18 -77 -30 6 c-16 3 -61
17 -100 30 -117 41 -115 41 -115 -4 0 -104 -41 -219 -106 -298 -44 -54 -46
-48 75 -177 l81 -86 -47 -42 c-75 -66 -78 -66 -111 -18 -16 24 -48 81 -72 128
-23 47 -43 86 -45 88 -1 1 -31 -11 -67 -27 -36 -16 -102 -37 -148 -47 -132
-26 -209 -8 -308 72 l-54 44 -29 -20 c-15 -12 -66 -38 -111 -60 l-82 -38 -36
40 c-48 55 -90 118 -90 134 0 21 39 42 130 69 46 14 87 29 91 33 4 4 -1 32
-11 62 -24 68 -26 218 -5 335 11 62 11 82 2 94 -18 22 -138 76 -212 96 -39 11
-65 23 -65 31 0 16 50 144 56 144 12 0 67 -42 154 -117 52 -46 100 -83 105
-83 6 1 22 18 36 39 63 90 166 145 291 154 37 3 71 8 76 11 5 3 12 40 16 83 9
96 22 147 43 169 19 18 55 16 143 -10z m-912 -643 c15 -29 34 -189 27 -223 -8
-38 -44 -63 -78 -55 -24 6 -25 12 -36 118 -6 62 -9 121 -7 132 2 11 5 26 5 33
1 20 78 16 89 -5z m706 -834 c32 -25 34 -66 5 -103 -28 -35 -57 -46 -92 -34
-69 24 -62 126 10 148 42 13 48 12 77 -11z"/>
<path d="M1077 2469 c-39 -11 -57 -28 -78 -74 -27 -60 -25 -109 9 -145 75 -85
245 -42 258 65 12 95 -92 180 -189 154z"/>
<path d="M2641 2556 c-31 -17 -50 -53 -51 -92 0 -35 12 -48 53 -58 22 -5 27
-12 27 -35 0 -53 -8 -61 -64 -61 -70 0 -168 -17 -235 -40 -30 -11 -56 -20 -57
-20 -2 0 -17 37 -34 83 -43 110 -80 177 -99 177 -20 0 -141 -81 -141 -95 0 -5
34 -53 75 -105 41 -52 78 -103 81 -113 4 -13 -9 -33 -41 -68 -57 -62 -101
-152 -110 -230 -4 -32 -10 -61 -14 -64 -4 -2 -44 12 -89 31 -45 19 -97 38
-115 41 l-33 5 -27 -89 c-27 -89 -33 -133 -20 -133 3 0 57 7 119 16 142 21
164 16 164 -32 0 -20 12 -65 26 -100 14 -36 24 -67 22 -68 -7 -7 -217 -86
-227 -86 -20 0 -21 -19 -2 -61 10 -24 26 -65 35 -90 9 -25 22 -54 29 -64 19
-26 46 -8 103 68 26 34 67 83 92 109 l45 47 40 -34 c51 -44 176 -108 250 -130
l59 -17 -7 -45 c-10 -69 -13 -73 -57 -73 -30 0 -46 -7 -69 -29 -25 -26 -29
-37 -29 -86 0 -80 28 -131 87 -157 95 -42 182 29 183 149 0 72 -33 113 -91
113 -18 0 -19 4 -13 38 17 92 11 86 110 93 49 4 102 12 118 18 16 6 30 10 31
9 13 -15 45 -94 56 -136 l13 -53 -32 -29 c-37 -34 -40 -57 -11 -94 15 -20 29
-26 58 -26 20 0 42 5 49 12 21 21 14 74 -14 107 -14 17 -32 53 -40 79 -8 26
-24 71 -36 100 l-22 52 25 17 c13 9 43 36 66 61 l43 44 109 -106 c63 -62 117
-106 128 -106 15 0 28 18 51 67 43 96 44 93 -15 113 -54 19 -173 79 -207 105
-19 14 -19 16 0 101 10 47 21 89 24 94 3 5 48 10 100 12 l95 3 8 -40 c5 -22
11 -50 13 -62 3 -17 13 -22 55 -28 27 -4 53 -4 57 0 4 4 8 72 10 152 4 162 4
163 -60 163 -47 0 -65 -25 -74 -102 -8 -68 -12 -71 -122 -66 l-73 3 -4 110
c-2 61 -5 119 -7 129 -3 17 10 23 97 46 55 14 106 29 113 33 25 17 12 65 -39
141 -27 41 -54 78 -58 81 -10 6 -98 -24 -181 -61 l-59 -26 -57 51 c-32 28 -78
58 -102 68 -44 16 -44 17 -38 57 5 29 18 50 46 76 55 51 55 107 -1 135 -34 18
-57 18 -88 1z m35 -911 c27 -26 34 -40 34 -70 0 -84 -136 -142 -235 -101 -39
16 -55 42 -55 86 0 123 159 176 256 85z"/>
</g>
</svg>
